<svg width="1600" height="1200" viewBox="0 0 1600 1200" fill="none" xmlns="http://www.w3.org/2000/svg">
<rect width="1600" height="1200" fill="white"/>
<rect width="1600" height="1200" fill="white"/>
<mask id="mask0" mask-type="alpha" maskUnits="userSpaceOnUse" x="0" y="0" width="1600" height="1200">
<rect width="1600" height="1200" fill="white"/>
</mask>
<g mask="url(#mask0)">
<path d="M217.461 322.987C217.461 308.668 214.649 294.489 209.185 281.26C203.72 268.032 195.711 256.011 185.614 245.886C175.517 235.761 163.531 227.729 150.34 222.249C137.148 216.77 123.009 213.949 108.731 213.949C94.452 213.949 80.3127 216.77 67.1215 222.249C53.9303 227.729 41.9439 235.761 31.8472 245.886C21.7505 256.011 13.7414 268.032 8.27657 281.26C2.81177 294.489 0 308.668 0 322.987H108.731H217.461Z" fill="#EE95CF"/>
<path d="M0 218.075C14.3172 218.075 28.4948 215.262 41.7218 209.798C54.9487 204.333 66.9676 196.323 77.0917 186.225C87.2158 176.127 95.2466 164.14 100.726 150.947C106.206 137.753 109.025 123.613 109.025 109.332C109.025 95.0522 106.206 80.9117 100.726 67.7184C95.2466 54.5251 87.2158 42.5375 77.0917 32.4399C66.9676 22.3421 54.9487 14.3322 41.7218 8.86738C28.4948 3.40256 14.3172 0.589843 0 0.589844V109.332V218.075Z" fill="#5A44D6"/>
<path d="M239.265 588.802C224.948 588.802 210.771 585.982 197.544 580.502C184.317 575.022 172.298 566.99 162.174 556.865C152.05 546.74 144.019 534.719 138.539 521.491C133.06 508.263 130.24 494.083 130.24 479.765H239.265V588.802Z" fill="#161616"/>
<path d="M0 348.33C14.3172 348.33 28.4948 351.15 41.7218 356.63C54.9487 362.11 66.9676 370.142 77.0917 380.267C87.2158 390.392 95.2466 402.413 100.726 415.641C106.206 428.869 109.025 443.049 109.025 457.367H0L0 348.33Z" fill="#5A44D6"/>
<path d="M130.24 110.216C130.24 95.897 133.06 81.7183 138.539 68.4892C144.019 55.2601 152.05 43.2401 162.174 33.1151C172.298 22.9899 184.317 14.9583 197.544 9.47868C210.771 3.99905 224.948 1.17871 239.265 1.17871V110.216H130.24Z" fill="#DE2761"/>
<path d="M0 534.283C0 504.174 24.4064 479.765 54.5126 479.765H109.025V588.802H54.5126C24.4064 588.802 0 564.393 0 534.283V534.283Z" fill="#DE2761"/>
<path d="M130.24 403.439C130.24 433.548 154.647 457.957 184.753 457.957H239.265V348.92H184.753C154.647 348.92 130.24 373.329 130.24 403.439Z" fill="#048ECB"/>
<path d="M195.95 218.075C219.873 218.075 239.266 198.68 239.266 174.755C239.266 150.83 219.873 131.435 195.95 131.435C172.028 131.435 152.635 150.83 152.635 174.755C152.635 198.68 172.028 218.075 195.95 218.075Z" fill="#DE2761"/>
<path d="M1587.64 218.074C1587.64 203.755 1584.82 189.577 1579.34 176.348C1573.86 163.119 1565.83 151.098 1555.71 140.973C1545.58 130.848 1533.57 122.817 1520.34 117.337C1507.11 111.857 1492.93 109.037 1478.62 109.037V218.074H1587.64Z" fill="#EE95CF"/>
<path d="M1239.35 110.216C1246.47 110.216 1253.52 108.806 1260.1 106.066C1266.68 103.326 1272.65 99.3103 1277.69 94.248C1282.72 89.1854 1286.72 83.1752 1289.44 76.5608C1292.17 69.9462 1293.57 62.8568 1293.57 55.6974C1293.57 48.538 1292.17 41.4486 1289.44 34.834C1286.72 28.2195 1282.72 22.2094 1277.69 17.1469C1272.65 12.0843 1266.68 8.06852 1260.1 5.32869C1253.52 2.58888 1246.47 1.17871 1239.35 1.17871L1239.35 55.6974L1239.35 110.216Z" fill="#EE95CF"/>
<path d="M1457.4 0.589844C1443.08 0.589842 1428.91 3.40256 1415.68 8.86738C1402.45 14.3322 1390.43 22.3421 1380.31 32.4399C1370.19 42.5375 1362.16 54.5251 1356.68 67.7184C1351.2 80.9117 1348.38 95.0522 1348.38 109.332C1348.38 123.613 1351.2 137.753 1356.68 150.947C1362.16 164.14 1370.19 176.127 1380.31 186.225C1390.43 196.323 1402.45 204.333 1415.68 209.798C1428.91 215.262 1443.08 218.075 1457.4 218.075V109.332V0.589844Z" fill="#5A44D6"/>
<path d="M1348.38 479.175C1348.38 464.856 1351.2 450.677 1356.68 437.449C1362.16 424.22 1370.19 412.2 1380.31 402.075C1390.43 391.95 1402.45 383.918 1415.68 378.438C1428.91 372.957 1443.08 370.138 1457.4 370.138V479.175H1348.38Z" fill="#161616"/>
<path d="M1478.62 587.623C1492.93 587.623 1507.11 584.811 1520.34 579.345C1533.57 573.88 1545.58 565.87 1555.71 555.772C1565.83 545.674 1573.86 533.687 1579.34 520.494C1584.82 507.301 1587.64 493.16 1587.64 478.88C1587.64 464.6 1584.82 450.459 1579.34 437.267C1573.86 424.074 1565.83 412.086 1555.71 401.988C1545.58 391.891 1533.57 383.881 1520.34 378.415C1507.11 372.95 1492.93 370.138 1478.62 370.138V478.88V587.623Z" fill="#EE95CF"/>
<path d="M1239.35 240.472C1253.67 240.472 1267.85 243.284 1281.07 248.749C1294.3 254.215 1306.32 262.225 1316.44 272.322C1326.57 282.42 1334.6 294.408 1340.08 307.601C1345.56 320.793 1348.38 334.934 1348.38 349.214C1348.38 363.494 1345.56 377.635 1340.08 390.828C1334.6 404.021 1326.57 416.008 1316.44 426.106C1306.32 436.204 1294.3 444.214 1281.07 449.679C1267.85 455.145 1253.67 457.957 1239.35 457.957L1239.35 349.214L1239.35 240.472Z" fill="#E6E6E6"/>
<path d="M1369.59 239.882C1369.59 254.201 1372.4 268.38 1377.87 281.608C1383.33 294.837 1391.34 306.857 1401.44 316.982C1411.53 327.107 1423.52 335.139 1436.71 340.619C1449.9 346.099 1464.04 348.919 1478.32 348.919C1492.6 348.919 1506.74 346.099 1519.93 340.619C1533.12 335.139 1545.11 327.107 1555.21 316.982C1565.3 306.857 1573.31 294.837 1578.78 281.608C1584.24 268.38 1587.05 254.201 1587.05 239.882H1478.32H1369.59Z" fill="#EE95CF"/>
<path d="M1348.38 534.283C1348.38 564.393 1323.97 588.802 1293.86 588.802H1239.35L1239.35 479.765H1293.86C1323.97 479.765 1348.38 504.174 1348.38 534.283V534.283Z" fill="#5A44D6"/>
<path d="M1521.93 87.8192C1545.86 87.8192 1565.25 68.4241 1565.25 44.4989C1565.25 20.5738 1545.86 1.17871 1521.93 1.17871C1498.01 1.17871 1478.62 20.5738 1478.62 44.4989C1478.62 68.4241 1498.01 87.8192 1521.93 87.8192Z" fill="#DE2761"/>
<path d="M1282.67 218.075C1306.59 218.075 1325.98 198.68 1325.98 174.755C1325.98 150.83 1306.59 131.435 1282.67 131.435C1258.74 131.435 1239.35 150.83 1239.35 174.755C1239.35 198.68 1258.74 218.075 1282.67 218.075Z" fill="#5A44D6"/>
<path d="M1412.91 588.802C1436.83 588.802 1456.22 569.406 1456.22 545.481C1456.22 521.556 1436.83 502.161 1412.91 502.161C1388.98 502.161 1369.59 521.556 1369.59 545.481C1369.59 569.406 1388.98 588.802 1412.91 588.802Z" fill="#DE2761"/>
<path d="M608.773 370.138C608.773 384.457 605.954 398.635 600.474 411.865C594.995 425.094 586.964 437.114 576.84 447.239C566.716 457.364 554.697 465.395 541.47 470.875C528.243 476.355 514.065 479.175 499.748 479.175V370.138H608.773Z" fill="#DE2761"/>
<path d="M957.064 500.983C949.944 500.983 942.893 499.573 936.316 496.833C929.738 494.093 923.761 490.077 918.725 485.015C913.691 479.952 909.697 473.942 906.973 467.327C904.249 460.713 902.846 453.623 902.846 446.464C902.846 439.305 904.249 432.215 906.973 425.601C909.697 418.986 913.691 412.976 918.725 407.913C923.761 402.851 929.738 398.835 936.316 396.095C942.893 393.355 949.944 391.945 957.064 391.945V500.983Z" fill="#161616"/>
<path d="M717.798 109.037C710.678 109.037 703.628 107.626 697.05 104.887C690.472 102.148 684.495 98.1314 679.459 93.0699C674.426 88.0062 670.431 81.9961 667.707 75.3819C664.983 68.7677 663.58 61.6781 663.58 54.5187C663.58 47.3593 664.983 40.2697 667.707 33.6555C670.431 27.0413 674.426 21.0311 679.459 15.9674C684.495 10.9059 690.472 6.88898 697.05 4.14996C703.628 1.41094 710.678 0 717.798 0V109.037Z" fill="#5A44D6"/>
<path d="M260.482 478.586C267.602 478.586 274.653 479.996 281.231 482.736C287.809 485.476 293.786 489.492 298.82 494.554C303.855 499.617 307.849 505.627 310.573 512.241C313.298 518.856 314.7 525.945 314.7 533.105C314.7 540.264 313.298 547.353 310.573 553.968C307.849 560.582 303.855 566.593 298.82 571.655C293.786 576.718 287.809 580.733 281.231 583.473C274.653 586.213 267.602 587.623 260.482 587.623V478.586Z" fill="#EE95CF"/>
<path d="M478.533 587.623C464.216 587.623 450.038 584.81 436.811 579.345C423.583 573.881 411.565 565.871 401.441 555.773C391.317 545.675 383.286 533.688 377.807 520.494C372.328 507.301 369.508 493.161 369.508 478.88C369.508 464.6 372.328 450.46 377.807 437.266C383.286 424.073 391.317 412.085 401.441 401.988C411.565 391.89 423.583 383.88 436.811 378.415C450.038 372.95 464.216 370.138 478.533 370.138V587.623Z" fill="#EE95CF"/>
<path d="M369.508 109.037H478.533V218.074C464.216 218.074 450.038 215.255 436.811 209.775C423.583 204.294 411.565 196.263 401.441 186.137C391.317 176.012 383.286 163.992 377.807 150.764C372.328 137.535 369.508 123.356 369.508 109.037Z" fill="#5A44D6"/>
<path d="M499.748 0.589844C514.065 0.589844 528.243 3.40193 541.47 8.86733C554.697 14.3327 566.716 22.3427 576.84 32.4406C586.964 42.5384 594.995 54.5262 600.474 67.7188C605.954 80.9115 608.773 95.0524 608.773 109.332C608.773 123.613 605.954 137.753 600.474 150.946C594.995 164.139 586.964 176.127 576.84 186.224C566.716 196.322 554.697 204.332 541.47 209.798C528.243 215.263 514.065 218.075 499.748 218.075V0.589844Z" fill="#DE2761"/>
<path d="M739.604 587.623C739.604 573.304 742.415 559.125 747.88 545.896C753.345 532.667 761.354 520.647 771.451 510.522C781.547 500.397 793.534 492.366 806.725 486.886C819.916 481.406 834.056 478.586 848.334 478.586C862.613 478.586 876.752 481.406 889.943 486.886C903.134 492.366 915.121 500.397 925.217 510.522C935.314 520.647 943.323 532.667 948.788 545.896C954.253 559.125 957.065 573.304 957.065 587.623H739.604Z" fill="#048ECB"/>
<path d="M1195.74 265.226C1195.74 279.544 1192.93 293.724 1187.46 306.952C1182 320.18 1173.99 332.201 1163.89 342.326C1153.8 352.451 1141.81 360.483 1128.62 365.963C1115.43 371.443 1101.29 374.263 1087.01 374.263C1072.73 374.263 1058.59 371.443 1045.4 365.963C1032.21 360.483 1020.22 352.451 1010.13 342.326C1000.03 332.201 992.021 320.18 986.556 306.952C981.091 293.724 978.279 279.544 978.279 265.226H1195.74Z" fill="#DE2761"/>
<path d="M978.279 370.138C992.596 370.138 1006.77 372.95 1020 378.415C1033.23 383.88 1045.25 391.89 1055.37 401.988C1065.5 412.085 1073.53 424.073 1079.01 437.266C1084.49 450.46 1087.3 464.6 1087.3 478.88C1087.3 493.161 1084.49 507.301 1079.01 520.494C1073.53 533.688 1065.5 545.675 1055.37 555.773C1045.25 565.871 1033.23 573.881 1020 579.345C1006.77 584.81 992.596 587.623 978.279 587.623V370.138Z" fill="#5A44D6"/>
<path d="M869.844 239.293C869.844 224.974 872.656 210.795 878.12 197.567C883.585 184.338 891.594 172.318 901.691 162.193C911.788 152.068 923.774 144.036 936.965 138.556C950.156 133.076 964.296 130.256 978.574 130.256C992.853 130.256 1006.99 133.076 1020.18 138.556C1033.37 144.036 1045.36 152.068 1055.46 162.193C1065.55 172.318 1073.56 184.338 1079.03 197.567C1084.49 210.795 1087.3 224.974 1087.3 239.293H869.844Z" fill="#048ECB"/>
<path d="M957.065 0C957.065 14.3188 954.253 28.498 948.788 41.7264C943.323 54.9548 935.314 66.9751 925.217 77.1003C915.121 87.2255 903.134 95.2572 889.943 100.737C876.752 106.218 862.613 109.037 848.334 109.037C834.056 109.037 819.916 106.218 806.725 100.737C793.534 95.2572 781.547 87.2255 771.451 77.1003C761.354 66.9751 753.345 54.9548 747.88 41.7264C742.415 28.498 739.604 14.3188 739.604 0H957.065Z" fill="#DE2761"/>
<path d="M717.799 347.741C703.481 347.741 689.304 344.929 676.077 339.464C662.85 333.998 650.831 325.988 640.707 315.89C630.583 305.793 622.552 293.805 617.072 280.612C611.593 267.419 608.773 253.279 608.773 238.998C608.773 224.718 611.593 210.578 617.072 197.385C622.552 184.192 630.583 172.204 640.707 162.107C650.831 152.009 662.85 143.999 676.077 138.533C689.304 133.068 703.481 130.256 717.799 130.256V347.741Z" fill="#EE95CF"/>
<path d="M260.482 347.741V130.256C274.8 130.256 288.977 133.068 302.205 138.533C315.432 143.999 327.451 152.009 337.575 162.107C347.699 172.204 355.73 184.192 361.209 197.385C366.688 210.578 369.508 224.718 369.508 238.998C369.508 253.279 366.688 267.419 361.209 280.612C355.73 293.805 347.699 305.793 337.575 315.89C327.451 325.988 315.432 333.998 302.205 339.464C288.977 344.929 274.8 347.741 260.482 347.741Z" fill="#DE2761"/>
<path d="M390.723 348.33C390.723 334.012 393.535 319.832 398.999 306.604C404.464 293.375 412.472 281.355 422.569 271.23C432.666 261.105 444.652 253.073 457.844 247.593C471.036 242.113 485.175 239.293 499.453 239.293C513.732 239.293 527.871 242.113 541.062 247.593C554.253 253.073 566.24 261.105 576.337 271.23C586.433 281.355 594.442 293.375 599.907 306.604C605.372 319.832 608.184 334.012 608.184 348.33H390.723Z" fill="#5A44D6"/>
<path d="M848.039 370.138C848.039 384.457 845.227 398.635 839.763 411.865C834.298 425.094 826.289 437.114 816.192 447.239C806.095 457.364 794.109 465.395 780.918 470.875C767.726 476.355 753.587 479.175 739.309 479.175C725.03 479.175 710.891 476.355 697.7 470.875C684.508 465.395 672.522 457.364 662.425 447.239C652.329 437.114 644.319 425.094 638.855 411.865C633.39 398.635 630.578 384.457 630.578 370.138H848.039Z" fill="#5A44D6"/>
<path d="M848.039 239.293H739.014V130.256C753.331 130.256 767.508 133.076 780.735 138.556C793.962 144.036 805.981 152.068 816.105 162.193C826.229 172.318 834.26 184.338 839.74 197.567C845.219 210.795 848.039 224.974 848.039 239.293Z" fill="#161616"/>
<path d="M1217.55 0V109.037H1108.52C1108.52 94.7186 1111.34 80.5393 1116.82 67.3109C1122.3 54.0825 1130.33 42.0622 1140.45 31.937C1150.58 21.8118 1162.6 13.7801 1175.82 8.29992C1189.05 2.81971 1203.23 0 1217.55 0Z" fill="#161616"/>
<path d="M848.039 261.101H957.064V370.138C942.747 370.138 928.569 367.318 915.342 361.838C902.116 356.358 890.097 348.326 879.973 338.201C869.848 328.076 861.818 316.055 856.338 302.827C850.858 289.599 848.039 275.419 848.039 261.101Z" fill="#5A44D6"/>
<path d="M1108.52 478.586H1217.55V587.623C1203.23 587.623 1189.05 584.803 1175.82 579.323C1162.6 573.844 1150.58 565.812 1140.45 555.687C1130.33 545.562 1122.3 533.542 1116.82 520.313C1111.34 507.084 1108.52 492.905 1108.52 478.586Z" fill="#E6E6E6"/>
<path d="M663.286 478.586C693.392 478.586 717.799 502.995 717.799 533.105V587.623H608.773V533.105C608.773 502.995 633.18 478.586 663.286 478.586Z" fill="#E6E6E6"/>
<path d="M369.508 54.5187C369.508 84.6282 345.101 109.037 314.995 109.037H260.482V0H314.995C345.101 0 369.508 24.4091 369.508 54.5187Z" fill="#048ECB"/>
<path d="M978.279 54.5187C978.279 24.4091 1002.69 0 1032.79 0H1087.3V109.037H1032.79C1002.69 109.037 978.279 84.6282 978.279 54.5187Z" fill="#048ECB"/>
<path d="M1108.52 184.775C1108.52 154.665 1132.93 130.256 1163.03 130.256H1217.55V239.293H1163.03C1132.93 239.293 1108.52 214.884 1108.52 184.775Z" fill="#EE95CF"/>
<path d="M543.063 500.982C566.986 500.982 586.379 520.378 586.379 544.303C586.379 568.228 566.986 587.623 543.063 587.623C519.141 587.623 499.748 568.228 499.748 544.303C499.748 520.378 519.141 500.982 543.063 500.982Z" fill="#5A44D6"/>
<path d="M303.798 370.727C327.72 370.727 347.113 390.122 347.113 414.047C347.113 437.972 327.72 457.367 303.798 457.367C279.875 457.367 260.482 437.972 260.482 414.047C260.482 390.122 279.875 370.727 303.798 370.727Z" fill="#E6E6E6"/>
<path d="M434.038 0C457.961 0 477.353 19.3951 477.353 43.3202C477.353 67.2453 457.961 86.6405 434.038 86.6405C410.116 86.6405 390.723 67.2453 390.723 43.3202C390.723 19.3951 410.116 0 434.038 0Z" fill="#161616"/>
<path d="M782.919 261.689C806.841 261.689 826.234 281.085 826.234 305.01C826.234 328.935 806.841 348.33 782.919 348.33C758.996 348.33 739.604 328.935 739.604 305.01C739.604 281.085 758.996 261.689 782.919 261.689Z" fill="#EE95CF"/>
<path d="M1174.23 370.727C1198.15 370.727 1217.55 390.122 1217.55 414.047C1217.55 437.972 1198.15 457.367 1174.23 457.367C1150.31 457.367 1130.92 437.972 1130.92 414.047C1130.92 390.122 1150.31 370.727 1174.23 370.727Z" fill="#DE2761"/>
<path d="M348.291 982.515C348.291 996.834 345.471 1011.01 339.992 1024.24C334.512 1037.47 326.481 1049.49 316.357 1059.62C306.233 1069.74 294.214 1077.77 280.987 1083.25C267.76 1088.73 253.583 1091.55 239.266 1091.55V982.515H348.291Z" fill="#EE95CF"/>
<path d="M696.583 1113.36C689.463 1113.36 682.413 1111.95 675.835 1109.21C669.257 1106.47 663.28 1102.45 658.245 1097.39C653.211 1092.33 649.216 1086.32 646.492 1079.7C643.768 1073.09 642.365 1066 642.365 1058.84C642.365 1051.68 643.768 1044.59 646.492 1037.98C649.216 1031.36 653.211 1025.35 658.245 1020.29C663.28 1015.23 669.257 1011.21 675.835 1008.47C682.413 1005.73 689.463 1004.32 696.583 1004.32V1113.36Z" fill="#DE2761"/>
<path d="M457.316 721.414C450.196 721.414 443.145 720.003 436.567 717.264C429.99 714.525 424.013 710.508 418.977 705.447C413.943 700.383 409.949 694.373 407.225 687.759C404.501 681.145 403.098 674.055 403.098 666.896C403.098 659.736 404.501 652.647 407.225 646.032C409.949 639.418 413.943 633.408 418.977 628.344C424.013 623.283 429.99 619.266 436.567 616.527C443.145 613.788 450.196 612.377 457.316 612.377V721.414Z" fill="#161616"/>
<path d="M0 1090.96C7.12 1090.96 14.1703 1092.37 20.7483 1095.11C27.3263 1097.85 33.3032 1101.87 38.3379 1106.93C43.3726 1111.99 47.3661 1118 50.0909 1124.62C52.8156 1131.23 54.2179 1138.32 54.2179 1145.48C54.2179 1152.64 52.8156 1159.73 50.0909 1166.34C47.3661 1172.96 43.3726 1178.97 38.3379 1184.03C33.3032 1189.09 27.3263 1193.11 20.7483 1195.85C14.1703 1198.59 7.12 1200 0 1200V1090.96Z" fill="#161616"/>
<path d="M218.051 1200C203.733 1200 189.556 1197.19 176.328 1191.72C163.101 1186.26 151.082 1178.25 140.958 1168.15C130.834 1158.05 122.804 1146.06 117.324 1132.87C111.845 1119.68 109.025 1105.54 109.025 1091.26C109.025 1076.98 111.845 1062.84 117.324 1049.64C122.804 1036.45 130.834 1024.46 140.958 1014.36C151.082 1004.27 163.101 996.257 176.328 990.792C189.556 985.327 203.733 982.515 218.051 982.515V1200Z" fill="#DE2761"/>
<path d="M109.025 720.825H218.051V829.863C203.733 829.863 189.556 827.043 176.328 821.563C163.101 816.082 151.082 808.051 140.958 797.925C130.834 787.8 122.804 775.78 117.324 762.552C111.845 749.323 109.025 735.144 109.025 720.825Z" fill="#5A44D6"/>
<path d="M239.266 612.377C253.583 612.377 267.76 615.189 280.987 620.654C294.214 626.12 306.233 634.13 316.357 644.228C326.481 654.326 334.512 666.313 339.992 679.506C345.471 692.699 348.291 706.84 348.291 721.12C348.291 735.4 345.471 749.541 339.992 762.733C334.512 775.926 326.481 787.914 316.357 798.012C306.233 808.109 294.214 816.119 280.987 821.585C267.76 827.05 253.583 829.862 239.266 829.862V612.377Z" fill="#5A44D6"/>
<path d="M479.121 1200C479.121 1185.68 481.933 1171.5 487.398 1158.27C492.862 1145.04 500.872 1133.02 510.968 1122.9C521.065 1112.77 533.051 1104.74 546.243 1099.26C559.434 1093.78 573.573 1090.96 587.852 1090.96C602.13 1090.96 616.269 1093.78 629.461 1099.26C642.652 1104.74 654.638 1112.77 664.735 1122.9C674.832 1133.02 682.841 1145.04 688.306 1158.27C693.77 1171.5 696.582 1185.68 696.582 1200H479.121Z" fill="#EE95CF"/>
<path d="M935.26 878.192C935.26 892.511 932.448 906.69 926.983 919.919C921.519 933.147 913.509 945.167 903.413 955.293C893.316 965.418 881.33 973.45 868.138 978.93C854.947 984.409 840.808 987.23 826.529 987.23C812.251 987.23 798.112 984.409 784.92 978.93C771.729 973.45 759.743 965.418 749.646 955.293C739.549 945.167 731.54 933.147 726.075 919.919C720.611 906.69 717.799 892.511 717.799 878.192H935.26Z" fill="#DE2761"/>
<path d="M717.799 982.515C732.116 982.515 746.294 985.327 759.521 990.792C772.748 996.257 784.766 1004.27 794.891 1014.36C805.015 1024.46 813.045 1036.45 818.525 1049.64C824.005 1062.84 826.824 1076.98 826.824 1091.26C826.824 1105.54 824.005 1119.68 818.525 1132.87C813.045 1146.06 805.015 1158.05 794.891 1168.15C784.766 1178.25 772.748 1186.26 759.521 1191.72C746.294 1197.19 732.116 1200 717.799 1200V982.515Z" fill="#048ECB"/>
<path d="M609.363 851.67C609.363 837.351 612.175 823.172 617.64 809.944C623.105 796.715 631.114 784.695 641.21 774.57C651.307 764.445 663.294 756.413 676.485 750.933C689.676 745.453 703.815 742.633 718.094 742.633C732.372 742.633 746.512 745.453 759.703 750.933C772.894 756.413 784.88 764.445 794.977 774.57C805.074 784.695 813.083 796.715 818.548 809.944C824.013 823.172 826.824 837.351 826.824 851.67H609.363Z" fill="#5A44D6"/>
<path d="M696.582 612.377C696.582 626.696 693.77 640.875 688.306 654.103C682.841 667.332 674.832 679.352 664.735 689.477C654.638 699.602 642.652 707.634 629.461 713.114C616.269 718.595 602.13 721.414 587.852 721.414C573.573 721.414 559.434 718.595 546.243 713.114C533.051 707.634 521.065 699.602 510.968 689.477C500.872 679.352 492.862 667.332 487.398 654.103C481.933 640.875 479.121 626.696 479.121 612.377H696.582Z" fill="#5A44D6"/>
<path d="M457.316 960.707C442.999 960.707 428.821 957.895 415.594 952.429C402.368 946.964 390.349 938.954 380.224 928.856C370.1 918.758 362.07 906.771 356.59 893.578C351.11 880.385 348.291 866.244 348.291 851.964C348.291 837.684 351.11 823.543 356.59 810.351C362.07 797.158 370.1 785.17 380.224 775.072C390.349 764.975 402.368 756.965 415.594 751.499C428.821 746.034 442.999 743.222 457.316 743.222V960.707Z" fill="#EE95CF"/>
<path d="M0 960.707V743.222C14.3174 743.222 28.4946 746.034 41.7222 751.499C54.9498 756.965 66.9685 764.975 77.0926 775.072C87.2165 785.17 95.2473 797.158 100.726 810.351C106.205 823.543 109.025 837.684 109.025 851.964C109.025 866.244 106.205 880.385 100.726 893.578C95.2473 906.771 87.2165 918.758 77.0924 928.856C66.9685 938.954 54.9498 946.964 41.7222 952.429C28.4946 957.895 14.3174 960.707 0 960.707Z" fill="#5A44D6"/>
<path d="M130.24 960.707C130.24 946.388 133.053 932.209 138.517 918.981C143.981 905.752 151.99 893.732 162.087 883.607C172.183 873.482 184.17 865.45 197.361 859.97C210.553 854.49 224.692 851.67 238.971 851.67C253.249 851.67 267.389 854.49 280.58 859.97C293.771 865.45 305.757 873.482 315.854 883.607C325.951 893.732 333.96 905.752 339.425 918.981C344.89 932.209 347.701 946.388 347.701 960.707H130.24Z" fill="#048ECB"/>
<path d="M587.557 982.515C587.557 996.834 584.745 1011.01 579.28 1024.24C573.815 1037.47 565.806 1049.49 555.71 1059.62C545.613 1069.74 533.626 1077.77 520.435 1083.25C507.244 1088.73 493.105 1091.55 478.826 1091.55C464.548 1091.55 450.408 1088.73 437.217 1083.25C424.026 1077.77 412.04 1069.74 401.943 1059.62C391.846 1049.49 383.837 1037.47 378.372 1024.24C372.907 1011.01 370.096 996.834 370.096 982.515H587.557Z" fill="#5A44D6"/>
<path d="M587.558 851.67H478.533V742.633C492.85 742.633 507.028 745.453 520.255 750.933C533.482 756.413 545.501 764.445 555.625 774.57C565.749 784.695 573.78 796.715 579.259 809.944C584.739 823.172 587.558 837.351 587.558 851.67Z" fill="#EE95CF"/>
<path d="M957.064 612.377V721.414H848.039C848.039 707.096 850.858 692.916 856.338 679.688C861.818 666.459 869.848 654.439 879.973 644.314C890.097 634.189 902.116 626.157 915.342 620.677C928.569 615.197 942.747 612.377 957.064 612.377Z" fill="#161616"/>
<path d="M587.557 873.478H696.582V982.515C682.265 982.515 668.087 979.695 654.86 974.215C641.633 968.735 629.614 960.703 619.49 950.578C609.366 940.453 601.335 928.432 595.856 915.204C590.376 901.976 587.557 887.796 587.557 873.478Z" fill="#DE2761"/>
<path d="M848.039 1090.96H957.064V1200C942.747 1200 928.569 1197.18 915.342 1191.7C902.116 1186.22 890.097 1178.19 879.973 1168.06C869.848 1157.94 861.818 1145.92 856.338 1132.69C850.858 1119.46 848.039 1105.28 848.039 1090.96Z" fill="#5A44D6"/>
<path d="M402.804 1090.96C432.91 1090.96 457.316 1115.37 457.316 1145.48V1200H348.291V1145.48C348.291 1115.37 372.697 1090.96 402.804 1090.96Z" fill="#048ECB"/>
<path d="M109.025 666.896C109.025 697.005 84.619 721.414 54.5126 721.414H0V612.377H54.5126C84.619 612.377 109.025 636.786 109.025 666.896Z" fill="#048ECB"/>
<path d="M717.799 666.896C717.799 636.786 742.205 612.377 772.311 612.377H826.824V721.414H772.311C742.205 721.414 717.799 697.005 717.799 666.896Z" fill="#DE2761"/>
<path d="M848.039 797.151C848.039 767.042 872.445 742.633 902.552 742.633H957.064V851.67H902.552C872.445 851.67 848.039 827.261 848.039 797.151Z" fill="#E6E6E6"/>
<path d="M282.581 1113.36C306.503 1113.36 325.896 1132.75 325.896 1156.68C325.896 1180.6 306.503 1200 282.581 1200C258.659 1200 239.266 1180.6 239.266 1156.68C239.266 1132.75 258.659 1113.36 282.581 1113.36Z" fill="#E6E6E6"/>
<path d="M43.3154 983.104C67.2379 983.104 86.6308 1002.5 86.6308 1026.42C86.6308 1050.35 67.2379 1069.74 43.3154 1069.74C19.393 1069.74 0 1050.35 0 1026.42C0 1002.5 19.393 983.104 43.3154 983.104Z" fill="#048ECB"/>
<path d="M173.556 612.377C197.478 612.377 216.871 631.772 216.871 655.697C216.871 679.622 197.478 699.017 173.556 699.017C149.633 699.017 130.24 679.622 130.24 655.697C130.24 631.772 149.633 612.377 173.556 612.377Z" fill="#161616"/>
<path d="M522.437 874.066C546.359 874.066 565.752 893.462 565.752 917.387C565.752 941.312 546.359 960.707 522.437 960.707C498.514 960.707 479.121 941.312 479.121 917.387C479.121 893.462 498.514 874.066 522.437 874.066Z" fill="#161616"/>
<path d="M913.749 983.104C937.671 983.104 957.064 1002.5 957.064 1026.42C957.064 1050.35 937.671 1069.74 913.749 1069.74C889.827 1069.74 870.434 1050.35 870.434 1026.42C870.434 1002.5 889.827 983.104 913.749 983.104Z" fill="#161616"/>
<path d="M1241.12 699.018C1248.24 699.018 1255.29 700.428 1261.87 703.168C1268.44 705.907 1274.42 709.923 1279.46 714.986C1284.49 720.048 1288.49 726.058 1291.21 732.673C1293.93 739.287 1295.34 746.377 1295.34 753.536C1295.34 760.696 1293.93 767.785 1291.21 774.4C1288.49 781.014 1284.49 787.024 1279.46 792.087C1274.42 797.149 1268.44 801.165 1261.87 803.905C1255.29 806.645 1248.24 808.055 1241.12 808.055V699.018Z" fill="#161616"/>
<path d="M1480.97 1090.96C1488.09 1090.96 1495.15 1092.37 1501.72 1095.11C1508.3 1097.85 1514.28 1101.87 1519.31 1106.93C1524.35 1111.99 1528.34 1118 1531.07 1124.62C1533.79 1131.23 1535.19 1138.32 1535.19 1145.48C1535.19 1152.64 1533.79 1159.73 1531.07 1166.34C1528.34 1172.96 1524.35 1178.97 1519.31 1184.03C1514.28 1189.09 1508.3 1193.11 1501.72 1195.85C1495.15 1198.59 1488.09 1200 1480.97 1200V1090.96Z" fill="#161616"/>
<path d="M1458.58 612.377C1458.58 626.696 1455.77 640.875 1450.3 654.104C1444.84 667.333 1436.83 679.353 1426.73 689.478C1416.64 699.603 1404.65 707.635 1391.46 713.114C1378.27 718.594 1364.13 721.414 1349.85 721.414C1335.57 721.414 1321.43 718.594 1308.24 713.114C1295.05 707.635 1283.06 699.603 1272.97 689.478C1262.87 679.353 1254.86 667.333 1249.4 654.104C1243.93 640.875 1241.12 626.696 1241.12 612.377H1458.58Z" fill="#EE95CF"/>
<path d="M1002.44 934.774C1002.44 920.455 1005.26 906.276 1010.72 893.047C1016.18 879.819 1024.19 867.799 1034.29 857.673C1044.39 847.548 1056.37 839.516 1069.56 834.036C1082.76 828.557 1096.9 825.736 1111.17 825.736C1125.45 825.736 1139.59 828.557 1152.78 834.036C1165.97 839.516 1177.96 847.548 1188.06 857.673C1198.15 867.799 1206.16 879.819 1211.63 893.047C1217.09 906.276 1219.9 920.455 1219.9 934.774H1002.44Z" fill="#EE95CF"/>
<path d="M1219.9 829.862C1205.59 829.862 1191.41 827.049 1178.18 821.585C1164.96 816.12 1152.94 808.11 1142.81 798.012C1132.69 787.915 1124.66 775.927 1119.18 762.734C1113.7 749.54 1110.88 735.4 1110.88 721.12C1110.88 706.839 1113.7 692.699 1119.18 679.506C1124.66 666.312 1132.69 654.325 1142.81 644.227C1152.94 634.129 1164.96 626.119 1178.18 620.654C1191.41 615.19 1205.59 612.377 1219.9 612.377V829.862Z" fill="#048ECB"/>
<path d="M1328.34 960.707C1328.34 975.026 1325.53 989.205 1320.06 1002.43C1314.6 1015.66 1306.59 1027.68 1296.49 1037.81C1286.4 1047.93 1274.41 1055.96 1261.22 1061.44C1248.03 1066.92 1233.89 1069.74 1219.61 1069.74C1205.33 1069.74 1191.19 1066.92 1178 1061.44C1164.81 1055.96 1152.82 1047.93 1142.73 1037.81C1132.63 1027.68 1124.62 1015.66 1119.16 1002.43C1113.69 989.205 1110.88 975.026 1110.88 960.707H1328.34Z" fill="#5A44D6"/>
<path d="M1241.12 1200C1241.12 1185.68 1243.93 1171.5 1249.4 1158.27C1254.86 1145.05 1262.87 1133.03 1272.97 1122.9C1283.06 1112.77 1295.05 1104.74 1308.24 1099.26C1321.43 1093.78 1335.57 1090.96 1349.85 1090.96C1364.13 1090.96 1378.27 1093.78 1391.46 1099.26C1404.65 1104.74 1416.64 1112.77 1426.73 1122.9C1436.83 1133.03 1444.84 1145.05 1450.3 1158.27C1455.77 1171.5 1458.58 1185.68 1458.58 1200H1241.12Z" fill="#DE2761"/>
<path d="M1480.97 852.26C1495.29 852.26 1509.47 855.072 1522.7 860.537C1535.92 866.003 1547.94 874.013 1558.07 884.11C1568.19 894.208 1576.22 906.196 1581.7 919.389C1587.18 932.581 1590 946.722 1590 961.002C1590 975.282 1587.18 989.423 1581.7 1002.62C1576.22 1015.81 1568.19 1027.8 1558.07 1037.89C1547.94 1047.99 1535.92 1056 1522.7 1061.47C1509.47 1066.93 1495.29 1069.75 1480.97 1069.75V852.26Z" fill="#048ECB"/>
<path d="M1350.14 829.863C1350.14 815.544 1352.96 801.365 1358.42 788.136C1363.89 774.907 1371.89 762.887 1381.99 752.762C1392.09 742.636 1404.07 734.605 1417.27 729.125C1430.46 723.646 1444.6 720.825 1458.88 720.825C1473.15 720.825 1487.29 723.646 1500.48 729.125C1513.68 734.605 1525.66 742.636 1535.76 752.762C1545.86 762.887 1553.86 774.907 1559.33 788.136C1564.79 801.365 1567.61 815.544 1567.61 829.863H1350.14Z" fill="#5A44D6"/>
<path d="M1350.73 960.707H1459.76V1069.74C1445.44 1069.74 1431.26 1066.92 1418.04 1061.44C1404.81 1055.96 1392.79 1047.93 1382.67 1037.81C1372.54 1027.68 1364.51 1015.66 1359.03 1002.43C1353.55 989.205 1350.73 975.026 1350.73 960.707Z" fill="#048ECB"/>
<path d="M980.637 1200V1090.96H1089.66C1089.66 1105.28 1086.84 1119.46 1081.36 1132.69C1075.88 1145.92 1067.85 1157.94 1057.73 1168.06C1047.6 1178.19 1035.59 1186.22 1022.36 1191.7C1009.13 1197.18 994.954 1200 980.637 1200Z" fill="#5A44D6"/>
<path d="M1350.14 938.9H1241.12V829.862C1255.44 829.862 1269.61 832.682 1282.84 838.162C1296.07 843.642 1308.09 851.674 1318.21 861.799C1328.33 871.925 1336.37 883.945 1341.85 897.173C1347.32 910.402 1350.14 924.581 1350.14 938.9Z" fill="#5A44D6"/>
<path d="M1089.66 721.414H980.637V612.377C994.954 612.377 1009.13 615.197 1022.36 620.677C1035.59 626.157 1047.6 634.188 1057.73 644.313C1067.85 654.438 1075.88 666.458 1081.36 679.687C1086.84 692.917 1089.66 707.095 1089.66 721.414Z" fill="#E6E6E6"/>
<path d="M1535.49 721.414C1505.38 721.414 1480.97 697.005 1480.97 666.896V612.377H1590V666.896C1590 697.005 1565.59 721.414 1535.49 721.414Z" fill="#048ECB"/>
<path d="M1219.9 1145.48C1219.9 1175.59 1195.5 1200 1165.39 1200H1110.88V1090.96H1165.39C1195.5 1090.96 1219.9 1115.37 1219.9 1145.48Z" fill="#E6E6E6"/>
<path d="M1089.66 1015.23C1089.66 1045.34 1065.26 1069.74 1035.15 1069.74H980.637V960.707H1035.15C1065.26 960.707 1089.66 985.116 1089.66 1015.23Z" fill="#048ECB"/>
<path d="M1415.85 938.31C1391.93 938.31 1372.54 918.915 1372.54 894.99C1372.54 871.065 1391.93 851.67 1415.85 851.67C1439.78 851.67 1459.17 871.065 1459.17 894.99C1459.17 918.915 1439.78 938.31 1415.85 938.31Z" fill="#DE2761"/>
<path d="M1023.95 829.273C1000.03 829.273 980.637 809.878 980.637 785.953C980.637 762.028 1000.03 742.633 1023.95 742.633C1047.87 742.633 1067.27 762.028 1067.27 785.953C1067.27 809.878 1047.87 829.273 1023.95 829.273Z" fill="#DE2761"/>
</g>
</svg>
